HIERARCHY
ROOT Hips
{
	OFFSET -3.958830 18.904000 13.208200
	CHANNELS 6 Xposition Yposition Zposition Zrotation Yrotation Xrotation 
	JOINT LHipJoint
	{
		OFFSET 0.000000 0.000000 0.000000
		CHANNELS 3 Zrotation Yrotation Xrotation
		JOINT LeftUpLeg
		{
			OFFSET 1.800000 -1.400000 0.085000
			CHANNELS 3 Zrotation Yrotation Xrotation
			JOINT LeftLeg
			{
				OFFSET 2.215000 -6.000000 0.000000
				CHANNELS 3 Zrotation Yrotation Xrotation
				JOINT LeftFoot
				{
					OFFSET 2.500000 -6.900000 0.000000
					CHANNELS 3 Zrotation Yrotation Xrotation
					JOINT LeftToeBase
					{
						OFFSET 0.200000 -0.500000 1.950000
						CHANNELS 3 Zrotation Yrotation Xrotation
						End Site
						{
							OFFSET 0.000000 0.000000 0.000000
						}
					}
				}
			}
		}
	}
	JOINT RHipJoint
	{
		OFFSET 0.000000 0.000000 0.000000
		CHANNELS 3 Zrotation Yrotation Xrotation
		JOINT RightUpLeg
		{
			OFFSET -1.800000 -1.400000 0.085000
			CHANNELS 3 Zrotation Yrotation Xrotation
			JOINT RightLeg
			{
				OFFSET -2.215000 -6.000000 0.000000
				CHANNELS 3 Zrotation Yrotation Xrotation
				JOINT RightFoot
				{
					OFFSET -2.500000 -6.900000 0.000000
					CHANNELS 3 Zrotation Yrotation Xrotation
					JOINT RightToeBase
					{
						OFFSET -0.200000 -0.500000 1.950000
						CHANNELS 3 Zrotation Yrotation Xrotation
						End Site
						{
							OFFSET 0.000000 0.000000 0.000000
						}
					}
				}
			}
		}
	}
	JOINT LowerBack
	{
		OFFSET 0.000000 0.000000 0.000000
		CHANNELS 3 Zrotation Yrotation Xrotation
		JOINT Spine
		{
			OFFSET -0.087000 1.940000 -0.288900
			CHANNELS 3 Zrotation Yrotation Xrotation
			JOINT Spine1
			{
				OFFSET 0.000000 1.950000 0.060000
				CHANNELS 3 Zrotation Yrotation Xrotation
				JOINT Neck
				{
					OFFSET 0.000000 0.000000 0.000000
					CHANNELS 3 Zrotation Yrotation Xrotation
					JOINT Neck1
					{
						OFFSET 0.000000 1.600000 0.340000
						CHANNELS 3 Zrotation Yrotation Xrotation
						JOINT Head
						{
							OFFSET 0.000000 1.667000 -0.240000
							CHANNELS 3 Zrotation Yrotation Xrotation
							End Site
							{
								OFFSET 0.000000 0.000000 0.000000
							}
						}
					}
				}
				JOINT LeftShoulder
				{
					OFFSET 0.000000 0.000000 0.000000
					CHANNELS 3 Zrotation Yrotation Xrotation
					JOINT LeftArm
					{
						OFFSET 2.700000 1.550000 -0.730000
						CHANNELS 3 Zrotation Yrotation Xrotation
						JOINT LeftForeArm
						{
							OFFSET 5.450000 0.000000 0.000000
							CHANNELS 3 Zrotation Yrotation Xrotation
							JOINT LeftHand
							{
								OFFSET 3.450000 0.000000 0.000000
								CHANNELS 3 Zrotation Yrotation Xrotation
								JOINT LeftHandIndex1
								{
									OFFSET 0.750000 0.000000 0.000000
									CHANNELS 3 Zrotation Yrotation Xrotation
									End Site
									{
										OFFSET 0.000000 0.000000 0.000000
									}
								}
							}
						}
					}
				}
				JOINT RightShoulder
				{
					OFFSET 0.000000 0.000000 0.000000
					CHANNELS 3 Zrotation Yrotation Xrotation
					JOINT RightArm
					{
						OFFSET -2.700000 1.550000 -0.730000
						CHANNELS 3 Zrotation Yrotation Xrotation
						JOINT RightForeArm
						{
							OFFSET -5.450000 0.000000 0.000000
							CHANNELS 3 Zrotation Yrotation Xrotation
							JOINT RightHand
							{
								OFFSET -3.450000 0.000000 0.000000
								CHANNELS 3 Zrotation Yrotation Xrotation
								JOINT RightHandIndex1
								{
									OFFSET -0.750000 0.000000 0.000000
									CHANNELS 3 Zrotation Yrotation Xrotation
									End Site
									{
										OFFSET 0.000000 0.000000 0.000000
									}
								}
							}
						}
					}
				}
			}
		}
	}
}
MOTION
Frames: 10
Frame Time: 0.016667
0.088020 17.576730 -0.888890 -2.547285 5.227434 -0.498565 -15.189881 13.768714 2.548081 7.946786 -2.037985 -18.985709 -1.737684 6.109962 22.447745 -1.179722 5.173505 2.866906 -0.351500 -0.734130 -0.140870 18.225553 -11.008596 2.266842 -7.914487 1.212030 -12.931011 6.337393 -6.136433 18.473347 0.338782 -4.188968 3.068019 0.041320 0.957910 -0.035010 -3.576507 -2.421449 -6.346509 7.741421 0.780385 3.841138 0.494621 1.003447 8.566184 -1.208128 -5.832802 -5.659979 -11.953432 14.504574 28.031459 -5.444540 13.740970 3.063590 -15.459259 0.613718 0.758350 -25.832322 -5.163633 -4.825284 61.730118 -42.242187 -24.862951 -4.447550 2.349223 0.292200 0.710330 -0.759170 -0.085810 17.636337 3.000457 2.452195 32.702711 2.126435 -9.610655 -26.339048 33.395813 -7.287762 1.683841 -1.310662 -0.919230 0.533150 0.598670 -0.360440 
0.088860 17.574880 -0.888000 -2.558294 5.206758 -0.510069 -15.192341 13.770927 2.547719 7.954842 -2.036158 -19.003028 -1.724789 6.117878 22.502908 -1.182451 5.181170 2.862689 -0.350690 -0.730320 -0.141330 18.223612 -11.006385 2.265162 -7.912808 1.215713 -12.942620 6.334627 -6.139582 18.520861 0.338237 -4.192041 3.065012 0.045920 0.957700 -0.035950 -3.569595 -2.429520 -6.343595 7.680455 0.805071 3.828264 0.646066 1.000942 8.623721 -1.265781 -5.822694 -5.640205 -11.943705 14.470453 28.032315 -5.480940 13.715570 2.986000 -15.340726 0.651235 0.758411 -25.599627 -5.113941 -4.784209 61.224025 -42.591770 -24.761902 -4.445366 2.345941 0.291550 0.710950 -0.758360 -0.085640 17.634931 2.975941 2.427457 32.543267 2.157381 -9.572574 -26.293044 33.415619 -7.271652 1.682109 -1.310753 -0.920790 0.535990 0.599010 -0.360400 
0.090620 17.571850 -0.887240 -2.588785 5.154780 -0.549438 -15.196456 13.777268 2.547836 7.965771 -2.037623 -19.038936 -1.671491 6.127791 22.651753 -1.183642 5.194280 2.853367 -0.342780 -0.720410 -0.133810 18.219572 -11.003930 2.263367 -7.897826 1.227731 -12.971547 6.324015 -6.149634 18.650371 0.333405 -4.197152 3.057078 0.052300 0.950530 -0.033780 -3.556747 -2.444645 -6.342387 7.581779 0.862140 3.835486 0.928184 1.005149 8.741774 -1.354545 -5.800434 -5.640035 -11.931214 14.386037 28.101731 -5.534080 13.657030 2.807830 -15.126994 0.654733 0.776861 -25.172265 -5.025119 -4.732055 60.184461 -43.193268 -24.508919 -4.435286 2.346174 0.293950 0.707360 -0.751960 -0.086230 17.604918 2.992462 2.424405 32.275249 2.162136 -9.529684 -26.257087 33.429813 -7.253496 1.682463 -1.313430 -0.918080 0.534490 0.594920 -0.361510 
0.093160 17.568350 -0.885950 -2.599491 5.082866 -0.607250 -15.203005 13.789919 2.547428 7.924379 -2.042023 -19.055819 -1.547691 6.119369 22.837966 -1.189544 5.206420 2.844132 -0.333370 -0.711910 -0.122760 18.212151 -11.001516 2.261372 -7.920934 1.237917 -12.989680 6.329050 -6.169769 18.791584 0.327406 -4.202652 3.050213 0.057950 0.941400 -0.033060 -3.535347 -2.470556 -6.342092 7.403423 0.942690 3.855034 1.285160 1.014404 8.900340 -1.456986 -5.755265 -5.663743 -11.891487 14.304686 28.252476 -5.580760 13.612090 2.550650 -14.824674 0.614784 0.813301 -24.509299 -4.829464 -4.679304 58.582117 -44.065563 -24.092396 -4.420927 2.343793 0.302090 0.701700 -0.745070 -0.088450 17.521624 3.046043 2.440785 32.019333 2.179365 -9.485750 -26.229618 33.365534 -7.221475 1.680525 -1.312235 -0.917520 0.535250 0.592120 -0.366560 
0.096250 17.563890 -0.884950 -2.607333 4.979776 -0.680517 -15.209847 13.804132 2.548272 7.893315 -2.042036 -19.060167 -1.447451 6.126133 23.047362 -1.192086 5.219562 2.830575 -0.322250 -0.700320 -0.108170 18.203675 -10.999016 2.259710 -7.964124 1.251040 -13.017906 6.359198 -6.203284 18.971337 0.320029 -4.209620 3.041599 0.062860 0.925690 -0.032500 -3.511524 -2.499041 -6.345148 7.204565 1.027687 3.898382 1.674832 1.015684 9.079016 -1.563638 -5.709234 -5.708508 -11.864272 14.211974 28.480711 -5.671060 13.592450 2.223710 -14.479611 0.539031 0.870276 -23.674822 -4.498013 -4.645728 56.546133 -45.241419 -23.581217 -4.400416 2.343651 0.310850 0.692710 -0.734500 -0.093750 17.406342 3.142552 2.467543 31.757414 2.261632 -9.416431 -26.202533 33.180183 -7.167675 1.682890 -1.309247 -0.913170 0.532470 0.587810 -0.372410 
0.099950 17.558910 -0.883520 -2.610347 4.866908 -0.743909 -15.215854 13.819156 2.548898 7.853319 -2.037927 -19.053727 -1.347224 6.133921 23.244311 -1.195615 5.233504 2.820617 -0.317310 -0.694260 -0.100320 18.195942 -10.998221 2.257009 -7.998377 1.264539 -13.064266 6.345191 -6.225641 19.166806 0.315101 -4.214042 3.036748 0.066010 0.915580 -0.036610 -3.489815 -2.526340 -6.347093 7.015687 1.115343 3.925166 2.065888 1.011341 9.252185 -1.683359 -5.666681 -5.765888 -11.851178 14.118590 28.734285 -5.749100 13.572500 1.989010 -14.033744 0.467880 0.929514 -22.732679 -4.120075 -4.586642 53.787255 -46.639449 -22.790557 -4.379124 2.347109 0.319810 0.685190 -0.727690 -0.097150 17.215541 3.232613 2.502674 31.581983 2.358049 -9.352063 -26.216239 33.001271 -7.127447 1.683787 -1.303313 -0.914410 0.535460 0.586250 -0.377420 
0.104640 17.554550 -0.882730 -2.610282 4.759532 -0.821217 -15.223155 13.838364 2.552137 7.801131 -2.039091 -19.046994 -1.238861 6.139683 23.455544 -1.195139 5.247578 2.812238 -0.313760 -0.691680 -0.088530 18.185766 -10.996788 2.254904 -8.041850 1.278099 -13.116606 6.337497 -6.256113 19.394871 0.307924 -4.218316 3.029633 0.065400 0.903140 -0.039390 -3.462961 -2.562781 -6.354871 6.806853 1.191540 3.996441 2.496393 0.985762 9.404572 -1.794159 -5.616308 -5.846882 -11.843192 13.983060 29.073901 -5.898880 13.572270 1.766470 -13.587447 0.342738 0.999147 -21.674402 -3.659900 -4.528800 50.316094 -48.175886 -21.695545 -4.354496 2.359936 0.332150 0.675120 -0.716480 -0.100940 17.013479 3.369419 2.564748 31.382838 2.458924 -9.285596 -26.223212 32.780771 -7.072657 1.690426 -1.295420 -0.915650 0.536870 0.581760 -0.382380 
0.109860 17.551350 -0.882230 -2.618241 4.649226 -0.918122 -15.229972 13.862871 2.554981 7.743550 -2.033443 -19.001546 -1.098591 6.131864 23.639012 -1.194986 5.251449 2.806331 -0.310830 -0.690390 -0.074830 18.174375 -10.996868 2.255586 -8.087249 1.288574 -13.157869 6.347112 -6.294321 19.622726 0.299906 -4.219958 3.026216 0.062260 0.884660 -0.046150 -3.435282 -2.603837 -6.369727 6.613543 1.245923 4.130246 2.904744 0.939164 9.516781 -1.877953 -5.558911 -5.956812 -11.840727 13.839158 29.521376 -6.122910 13.630200 1.501560 -13.150302 0.155043 1.075449 -20.460254 -3.110004 -4.450218 46.145549 -49.760537 -20.264380 -4.327209 2.385538 0.348890 0.660760 -0.703040 -0.106310 16.771864 3.554133 2.653011 31.236540 2.586095 -9.230900 -26.219976 32.563923 -7.013146 1.697664 -1.282548 -0.917600 0.537880 0.576220 -0.390440 
0.115990 17.549870 -0.882840 -2.604536 4.562499 -1.059006 -15.238052 13.896484 2.558431 7.627972 -2.027810 -18.901901 -0.892208 6.096347 23.818332 -1.185167 5.240165 2.804541 -0.305480 -0.686870 -0.054700 18.159362 -11.000334 2.256790 -8.160970 1.287905 -13.168350 6.336297 -6.333099 19.859385 0.286301 -4.217451 3.020774 0.053090 0.857440 -0.049190 -3.401371 -2.655007 -6.391573 6.394841 1.278136 4.343088 3.304019 0.870070 9.604955 -1.927931 -5.493003 -6.097429 -11.856244 13.672468 30.131409 -6.453100 13.749680 1.180680 -12.783975 -0.115414 1.160190 -19.081391 -2.504426 -4.336809 41.229906 -51.318698 -18.460547 -4.299112 2.434242 0.366450 0.640290 -0.681710 -0.113920 16.540689 3.810528 2.775922 31.078800 2.712869 -9.189156 -26.225819 32.335005 -6.949822 1.712143 -1.268584 -0.910270 0.531880 0.567240 -0.397650 
0.123060 17.548810 -0.883310 -2.598373 4.485695 -1.194082 -15.245914 13.929190 2.563247 7.529159 -2.021772 -18.783313 -0.734707 6.071031 23.950409 -1.178896 5.233888 2.801857 -0.303440 -0.691210 -0.035960 18.144711 -11.003746 2.256901 -8.212386 1.294137 -13.200580 6.290614 -6.369814 20.145624 0.276531 -4.217270 3.017420 0.042350 0.832150 -0.052730 -3.368309 -2.705777 -6.413771 6.200330 1.287112 4.537145 3.681682 0.776621 9.708094 -1.961005 -5.431576 -6.266107 -11.889040 13.503648 30.775327 -6.792870 13.859850 0.962100 -12.464769 -0.462352 1.267217 -17.624609 -1.878175 -4.141614 35.621499 -52.681186 -16.265318 -4.279895 2.499021 0.385640 0.622140 -0.664150 -0.122080 16.329165 4.133858 2.929402 30.925235 2.817911 -9.169723 -26.283057 32.120020 -6.906385 1.723674 -1.254103 -0.907460 0.525660 0.560360 -0.407730 
